<?xml version="1.0" standalone="no"?>
<!DOCTYPE svg PUBLIC "-//W3C//DTD SVG 20010904//EN"
 "http://www.w3.org/TR/2001/REC-SVG-20010904/DTD/svg10.dtd">
<svg version="1.0" xmlns="http://www.w3.org/2000/svg"
 width="500.000000pt" height="500.000000pt" viewBox="0 0 500.000000 500.000000"
 preserveAspectRatio="xMidYMid meet">

<g transform="translate(0.000000,500.000000) scale(0.100000,-0.100000)"
fill="#000000" stroke="none">
<path d="M1605 4173 c-475 -1348 -579 -1645 -730 -2073 -86 -245 -208 -589
-270 -765 -62 -176 -175 -495 -250 -710 -76 -214 -140 -396 -142 -403 -4 -10
103 -12 532 -10 l536 3 154 435 c84 239 223 633 308 875 356 1010 398 1130
402 1133 1 2 13 -18 25 -43 68 -141 228 -304 394 -403 154 -91 205 -112 597
-242 550 -182 693 -268 745 -449 35 -117 -1 -257 -88 -343 -123 -123 -387
-190 -620 -158 -215 29 -407 126 -561 283 -44 44 -82 76 -85 70 -4 -5 -141
-157 -306 -337 -341 -374 -317 -322 -196 -420 332 -270 740 -406 1214 -406
394 0 723 88 996 265 99 65 265 230 330 330 136 209 190 408 190 695 0 313
-54 485 -214 672 -92 109 -215 202 -366 278 -117 59 -208 92 -435 160 -318 94
-413 127 -520 180 -127 63 -199 124 -236 204 -25 53 -29 73 -29 151 0 74 4 99
24 142 36 77 103 138 200 184 109 51 204 70 346 71 129 1 193 -10 326 -53 110
-36 191 -83 260 -150 l51 -50 292 320 c160 177 294 326 296 333 5 14 -98 98
-198 162 -285 181 -735 279 -1140 247 -254 -20 -447 -69 -656 -167 -63 -30
-115 -53 -116 -52 -1 2 49 147 111 323 63 176 114 323 114 328 0 4 -240 7
-533 7 l-534 0 -218 -617z"/>
</g>
</svg>
